<svg width="28" height="22" viewBox="0 0 28 22" fill="none" xmlns="http://www.w3.org/2000/svg">
<path d="M6.70801 18.4258V20.9215" stroke="#3B3A5D" stroke-width="1.5" stroke-linecap="round" stroke-linejoin="round"/>
<path d="M19.4971 18.4258V20.9215" stroke="#3B3A5D" stroke-width="1.5" stroke-linecap="round" stroke-linejoin="round"/>
<path d="M5.28711 9.69104V3.38244C5.28711 2.73892 5.51168 2.12176 5.91141 1.66673C6.31114 1.21169 6.85329 0.956055 7.4186 0.956055C7.98391 0.956055 8.52606 1.21169 8.92579 1.66673C9.32552 2.12176 9.55009 2.73892 9.55009 3.38244" stroke="#3B3A5D" stroke-width="1.5" stroke-linecap="round" stroke-linejoin="round"/>
<path d="M22.3384 8.44336H15.2334V12.1869H22.3384V8.44336Z" stroke="#3B3A5D" stroke-width="1.5" stroke-linecap="round" stroke-linejoin="round"/>
<path d="M22.0348 9.69141H25.6888C25.9311 9.69141 26.1634 9.77507 26.3347 9.92399C26.5061 10.0729 26.6023 10.2749 26.6023 10.4855V13.6619C26.6023 14.9255 26.0248 16.1374 24.997 17.0309C23.9691 17.9244 22.575 18.4264 21.1213 18.4264H6.50539C5.05174 18.4264 3.65764 17.9244 2.62975 17.0309C1.60187 16.1374 1.02441 14.9255 1.02441 13.6619V10.4855C1.02441 10.2749 1.12066 10.0729 1.29197 9.92399C1.46328 9.77507 1.69564 9.69141 1.93791 9.69141H14.7268" stroke="#3B3A5D" stroke-width="1.5" stroke-linecap="round" stroke-linejoin="round"/>
</svg>
